<?xml version="1.0" encoding="utf-8"?>
<!-- Generator: Adobe Illustrator 25.4.1, SVG Export Plug-In . SVG Version: 6.00 Build 0)  -->
<svg version="1.1" id="Capa_1" xmlns="http://www.w3.org/2000/svg" xmlns:xlink="http://www.w3.org/1999/xlink" x="0px" y="0px"
	 viewBox="0 0 550.8 550.8" style="enable-background:new 0 0 550.8 550.8;" xml:space="preserve">
<style type="text/css">
	.st0{fill:#FFE6E6;}
</style>
<g>
	<g>
		<path class="st0" d="M475.1,132c0-2.5-0.8-5-2.6-7L366.3,3.7c0,0-0.1,0-0.1-0.1c-0.6-0.7-1.4-1.3-2.2-1.8
			c-0.2-0.1-0.5-0.3-0.7-0.4c-0.7-0.4-1.4-0.7-2.1-0.9c-0.2-0.1-0.4-0.1-0.6-0.2C359.9,0.1,359,0,358.2,0h-261
			C85.3,0,75.6,9.7,75.6,21.6v507.6c0,11.9,9.7,21.6,21.6,21.6h356.4c11.9,0,21.6-9.7,21.6-21.6v-396
			C475.2,132.8,475.1,132.4,475.1,132z M210.6,418.6h-35.8v106.1h-29.7V418.6h-35.2v-24.9h100.7L210.6,418.6L210.6,418.6z
			 M298.8,524.7L287,501c-4.9-9.1-8-15.9-11.7-23.5h-0.4c-2.7,7.6-6,14.4-10.1,23.5l-10.9,23.7h-33.8l37.9-66.3l-36.5-64.7h34
			l11.5,23.9c3.9,8,6.8,14.4,9.9,21.8h0.4c3.1-8.4,5.6-14.2,8.9-21.8l11.1-23.9h33.8l-36.9,63.9l38.9,67.1L298.8,524.7L298.8,524.7z
			 M440.9,418.6h-35.8v106.1h-29.7V418.6h-35.2v-24.9h100.7L440.9,418.6L440.9,418.6z M97.2,366.8V21.6h250.2v110.5
			c0,6,4.8,10.8,10.8,10.8h95.4v223.8H97.2z"/>
		<path class="st0" d="M174.4,148.3h119.8c4,0,7.2-3.2,7.2-7.2s-3.2-7.2-7.2-7.2H174.4c-4,0-7.2,3.2-7.2,7.2
			S170.4,148.3,174.4,148.3z"/>
		<path class="st0" d="M370.8,191.4H174.2c-4,0-7.2,3.2-7.2,7.2c0,4,3.2,7.2,7.2,7.2h196.6c4,0,7.2-3.2,7.2-7.2
			C378,194.6,374.8,191.4,370.8,191.4z"/>
		<path class="st0" d="M370.8,248.6H174.2c-4,0-7.2,3.2-7.2,7.2c0,4,3.2,7.2,7.2,7.2h196.6c4,0,7.2-3.2,7.2-7.2
			C378,251.8,374.8,248.6,370.8,248.6z"/>
		<path class="st0" d="M370.8,307.1H174.2c-4,0-7.2,3.2-7.2,7.2c0,4,3.2,7.2,7.2,7.2h196.6c4,0,7.2-3.2,7.2-7.2
			S374.8,307.1,370.8,307.1z"/>
	</g>
</g>
</svg>
